<?xml version="1.0" encoding="UTF-8"?><svg id="a" xmlns="http://www.w3.org/2000/svg" viewBox="0 0 716.474 509.269"><defs><style>.b{fill:#fff;}</style></defs><ellipse class="b" cx="508.33" cy="255.354" rx="182.341" ry="237.212"/><path d="M511.396,508.177c-22.307,0-43.554-4.27-63.744-12.805-20.19-8.537-38.699-20.586-55.523-36.143-16.826-15.561-31.417-33.904-43.77-55.032-12.355-21.128-21.922-44.375-28.699-69.743-6.778-25.364-10.168-52.094-10.168-80.186s3.39-54.85,10.168-80.277c6.777-25.427,16.344-48.734,28.699-69.925,12.353-21.187,26.943-39.562,43.77-55.122,16.824-15.557,35.333-27.606,55.523-36.143C467.842,4.265,489.089-.003,511.396-.003s43.528,4.268,63.672,12.804c20.141,8.537,38.601,20.586,55.379,36.143,16.776,15.56,31.343,33.935,43.698,55.122,12.353,21.19,21.921,44.498,28.699,69.925s10.167,52.188,10.167,80.277-3.389,54.822-10.167,80.186c-6.778,25.368-16.347,48.615-28.699,69.743-12.355,21.128-26.922,39.472-43.698,55.032-16.778,15.557-35.238,27.605-55.379,36.143-20.144,8.535-41.368,12.805-63.672,12.805ZM511.396,473.667c19.229,0,37.544-3.693,54.946-11.078,17.401-7.387,33.361-17.799,47.88-31.238,14.517-13.441,27.113-29.305,37.785-47.586s18.939-38.382,24.806-60.298c5.863-21.914,8.797-44.98,8.797-69.198s-2.934-47.463-8.797-69.379c-5.866-21.914-14.111-42.015-24.733-60.299-10.625-18.281-23.219-34.173-37.785-47.676-14.565-13.5-30.551-23.943-47.952-31.33-17.402-7.384-35.718-11.079-54.946-11.079-19.325,0-37.713,3.695-55.163,11.079-17.45,7.387-33.436,17.799-47.952,31.239-14.519,13.44-27.113,29.304-37.785,47.585-10.672,18.284-18.941,38.413-24.805,60.39-5.866,21.976-8.798,45.133-8.798,69.47s2.932,47.284,8.798,69.198c5.863,21.917,14.133,42.045,24.805,60.389s23.267,34.204,37.785,47.585c14.517,13.377,30.502,23.762,47.952,31.148,17.45,7.385,35.838,11.078,55.163,11.078ZM439.576,389.395V118.778h81.339c15.479,0,28.313,3.088,38.506,9.263,10.189,6.175,17.786,14.592,22.786,25.246,4.998,10.656,7.499,22.643,7.499,35.961,0,11.141-1.658,20.585-4.976,28.333-3.316,7.75-7.765,14.016-13.34,18.798-5.577,4.785-11.826,8.264-18.748,10.443v2.724c7.499.363,14.71,3.241,21.633,8.627,6.922,5.389,12.618,12.927,17.089,22.612,4.471,9.688,6.706,21.372,6.706,35.053,0,13.925-2.645,26.458-7.932,37.596-5.288,11.142-13.317,19.919-24.084,26.335-10.77,6.419-24.422,9.626-40.958,9.626h-85.521ZM476.496,234.653h40.092c6.923,0,13.146-1.634,18.677-4.904,5.527-3.269,9.901-7.9,13.123-13.894,3.221-5.994,4.832-13.045,4.832-21.159,0-10.653-2.981-19.493-8.942-26.517-5.962-7.021-14.903-10.534-26.824-10.534h-40.957v77.008ZM476.496,350.346h43.409c14.517,0,24.997-3.542,31.439-10.625,6.44-7.083,9.662-16.073,9.662-26.971,0-8.232-1.611-15.679-4.831-22.339-3.223-6.658-7.812-11.925-13.772-15.801-5.963-3.874-13.029-5.812-21.2-5.812h-44.707v81.548Z"/></svg>