<?xml version="1.0" encoding="UTF-8"?><svg id="Layer_1" xmlns="http://www.w3.org/2000/svg" viewBox="0 0 39.03 48.42"><defs><style>.cls-1{fill:#d3d3d3;}</style></defs><path d="M19.53,48.32c-2.12,0-4.14-.41-6.06-1.22s-3.68-1.96-5.28-3.44c-1.6-1.48-2.99-3.22-4.16-5.23-1.17-2.01-2.08-4.22-2.73-6.63-.64-2.41-.97-4.95-.97-7.62s.32-5.22.97-7.63c.64-2.42,1.55-4.63,2.73-6.65,1.17-2.01,2.56-3.76,4.16-5.24,1.6-1.48,3.36-2.62,5.28-3.44,1.92-.81,3.94-1.22,6.06-1.22s4.14.41,6.05,1.22c1.92.81,3.67,1.96,5.27,3.44s2.98,3.23,4.15,5.24,2.08,4.23,2.73,6.65c.64,2.42.97,4.96.97,7.63s-.32,5.21-.97,7.62c-.64,2.41-1.55,4.62-2.73,6.63-1.17,2.01-2.56,3.75-4.15,5.23-1.6,1.48-3.35,2.62-5.27,3.44-1.92.81-3.93,1.22-6.05,1.22Z"/><path class="cls-1" d="M13.07,37.03V11.29h7.24c1.43,0,2.6.31,3.53.92.93.62,1.62,1.44,2.07,2.47.45,1.03.68,2.17.68,3.43,0,1.1-.16,2.02-.47,2.74-.31.72-.72,1.29-1.23,1.72-.51.43-1.06.74-1.65.95v.24c.64.05,1.28.32,1.91.83.64.51,1.17,1.23,1.59,2.16s.64,2.07.64,3.42-.24,2.45-.71,3.49c-.47,1.04-1.21,1.86-2.21,2.46-1.01.6-2.31.91-3.92.91h-7.47ZM15.67,22.59h4.5c.73,0,1.39-.18,1.99-.54.59-.36,1.06-.88,1.41-1.54.35-.66.52-1.44.52-2.32,0-1.12-.31-2.06-.93-2.83s-1.59-1.16-2.91-1.16h-4.58v8.39ZM15.67,34.12h4.8c1.59,0,2.72-.39,3.39-1.16.67-.77,1.01-1.72,1.01-2.83,0-.86-.17-1.66-.52-2.38-.35-.73-.84-1.31-1.47-1.74-.64-.44-1.39-.66-2.27-.66h-4.94v8.77Z"/></svg>