<svg xmlns="http://www.w3.org/2000/svg" id="Layer_1" viewBox="0 0 39.03 48.42"><path d="M19.53 48.32c-2.12 0-4.14-.41-6.06-1.22s-3.68-1.96-5.28-3.44-2.99-3.22-4.16-5.23Q2.275 35.415 1.3 31.8c-.64-2.41-.97-4.95-.97-7.62s.32-5.22.97-7.63c.64-2.42 1.55-4.63 2.73-6.65C5.2 7.89 6.59 6.14 8.19 4.66s3.36-2.62 5.28-3.44C15.39.41 17.41 0 19.53 0s4.14.41 6.05 1.22c1.92.81 3.67 1.96 5.27 3.44S33.83 7.89 35 9.9s2.08 4.23 2.73 6.65c.64 2.42.97 4.96.97 7.63s-.32 5.21-.97 7.62q-.96 3.615-2.73 6.63a22.7 22.7 0 0 1-4.15 5.23 18.3 18.3 0 0 1-5.27 3.44c-1.92.81-3.93 1.22-6.05 1.22"/><path d="M13.07 37.03V11.29h7.24c1.43 0 2.6.31 3.53.92.93.62 1.62 1.44 2.07 2.47s.68 2.17.68 3.43c0 1.1-.16 2.02-.47 2.74s-.72 1.29-1.23 1.72-1.06.74-1.65.95v.24c.64.05 1.28.32 1.91.83q.96.765 1.59 2.16c.63 1.395.64 2.07.64 3.42s-.24 2.45-.71 3.49-1.21 1.86-2.21 2.46c-1.01.6-2.31.91-3.92.91Zm2.6-14.44h4.5c.73 0 1.39-.18 1.99-.54.59-.36 1.06-.88 1.41-1.54s.52-1.44.52-2.32c0-1.12-.31-2.06-.93-2.83s-1.59-1.16-2.91-1.16h-4.58Zm0 11.53h4.8c1.59 0 2.72-.39 3.39-1.16s1.01-1.72 1.01-2.83c0-.86-.17-1.66-.52-2.38a4.3 4.3 0 0 0-1.47-1.74c-.64-.44-1.39-.66-2.27-.66h-4.94Z" style="fill:#d3d3d3"/></svg>