<svg xmlns="http://www.w3.org/2000/svg" id="Layer_1" viewBox="0 0 118.49 120.94"><defs><clipPath id="clippath-1"><path d="M8.34 50.24h28.85v44.99H8.34Z" style="fill:none" transform="rotate(-17.21 22.758 72.73)"/></clipPath><style>.cls-3{fill:#fff;stroke:#000;stroke-linejoin:round;stroke-width:2.29px}</style></defs><path d="M48.7 24.6 13.36 85.81c-5.34 9.25 1.34 20.82 12.02 20.82h70.68c10.68 0 17.36-11.57 12.02-20.82L72.74 24.6c-5.34-9.25-18.7-9.25-24.04 0" style="fill:#efefef"/><path d="M48.7 24.6 13.36 85.81c-5.34 9.25 1.34 20.82 12.02 20.82h70.68c10.68 0 17.36-11.57 12.02-20.82L72.74 24.6c-5.34-9.25-18.7-9.25-24.04 0" style="stroke:#000;stroke-linejoin:round;fill:none;stroke-linecap:round;stroke-width:4px"/><path d="M117.15 17.22c.1-.97.03-2.21 0-2.6-.03-.41-.06-.76-.09-1-.05-.26-.28-1.36-1.05-2.64-.9-1.49-2.26-2.83-4.1-4-1.82-1.16-3.59-1.84-5.31-2.02q-2.58-.285-4.8.87c-1.48.77-2.76 2.01-3.86 3.72l-2.22 3.47-1.43 2.24L69.8 56.69h-9.5L11.41 89.15l1.9 9.55 50.95-32.6 16.3 39.03 17.67.33-18.47-43.77c10.69-11.74 21.37-23.48 32.06-35.23 1-1.04 3.05-3.32 4.35-6.09.42-.89.86-1.86.99-3.16Z"/><path d="M8.34 50.24h28.85v44.99H8.34Z" class="cls-3" transform="rotate(-17.21 22.758 72.73)"/><path d="M7.13 77.61 0 54.6l8.16-2.53c1.61-.5 3.02-.63 4.23-.41 1.22.23 2.22.72 3.02 1.49.8.76 1.37 1.71 1.71 2.83.31.99.38 1.86.23 2.61s-.45 1.41-.91 1.96c-.45.56-.99 1.03-1.6 1.43l.07.22c.73-.18 1.53-.16 2.38.07.86.23 1.65.69 2.39 1.38s1.29 1.63 1.67 2.84.41 2.28.17 3.37-.85 2.08-1.81 2.97c-.97.89-2.35 1.62-4.17 2.18l-8.42 2.61ZM6.06 63.79l5.07-1.57c.82-.26 1.52-.65 2.09-1.18s.96-1.15 1.17-1.87c.21-.71.19-1.47-.06-2.26-.31-1-.92-1.74-1.83-2.21s-2.11-.48-3.6-.02l-5.16 1.6Zm3.2 10.32 5.41-1.67c1.79-.55 2.96-1.29 3.5-2.22.54-.92.66-1.89.35-2.88-.24-.77-.65-1.42-1.25-1.95-.59-.53-1.31-.88-2.14-1.05-.84-.17-1.75-.1-2.74.2l-5.56 1.72Z" style="clip-path:url(#clippath-1)"/><path d="m12.61 92.21 20.74 13.85 24.98-37.42-24-16.01-22.4 33.55Z" class="cls-3"/><path d="m47.65 63.9-21.69 6.65 1.74 2.31 6-1.93 5.29 7.02-3.47 5.28 1.72 2.29 12.31-19.1-1.9-2.51ZM42.9 72l-2.52 3.84-4.28-5.68 4.36-1.4a133.887 133.887 0 0 0 6.42-2.3c-.88 1.18-1.62 2.19-2.21 3.01-.71 1-1.3 1.84-1.76 2.53Z"/><path d="M11.95 94.97 31.19 120l18.77-14.42-22.49-29.26-15.69 12.06Z" style="stroke-width:1.88px;fill:#fff;stroke:#000;stroke-linejoin:round"/><path d="M28.47 91.28c3.733 5.136 2.593 12.344-2.544 16.077l-2.62 1.905L9.77 90.64l2.621-1.905c5.137-3.734 12.344-2.593 16.078 2.543"/><path d="M23.71 90.27h.42c4.75 0 8.6 3.86 8.6 8.6v2.69H15.11v-2.69c0-4.75 3.86-8.6 8.6-8.6" style="fill:#fff" transform="rotate(60 23.916 95.923)"/><circle cx="61.21" cy="46.04" r="11.78"/><circle cx="61.22" cy="46.04" r="11.78" style="fill:none;stroke:#efefef;stroke-miterlimit:10;stroke-width:1.14px"/></svg>