<?xml version="1.0" encoding="UTF-8"?><svg xmlns="http://www.w3.org/2000/svg" xmlns:xlink="http://www.w3.org/1999/xlink" id="Layer_1" viewBox="0 0 118.49 120.94"><defs><style>.cls-1 {
  stroke-width: 1.88px;
}

.cls-1, .cls-2, .cls-3 {
  fill: #fff;
}

.cls-1, .cls-3, .cls-4 {
  stroke: #000;
  stroke-linejoin: round;
}

.cls-5, .cls-4, .cls-6 {
  fill: none;
}

.cls-3 {
  stroke-width: 2.29px;
}

.cls-7 {
  clip-path: url("#clippath-1");
}

.cls-4 {
  stroke-linecap: round;
  stroke-width: 4px;
}

.cls-8 {
  fill: #efefef;
}

.cls-6 {
  stroke: #efefef;
  stroke-miterlimit: 10;
  stroke-width: 1.14px;
}
</style><clipPath id="clippath-1"><rect class="cls-5" x="8.34" y="50.24" width="28.85" height="44.99" transform="translate(-20.5 9.99) rotate(-17.21)"/></clipPath></defs><path class="cls-8" d="M48.7,24.6L13.36,85.81c-5.34,9.25,1.34,20.82,12.02,20.82h70.68c10.68,0,17.36-11.57,12.02-20.82l-35.34-61.21c-5.34-9.25-18.7-9.25-24.04,0Z"/><path class="cls-4" d="M48.7,24.6L13.36,85.81c-5.34,9.25,1.34,20.82,12.02,20.82h70.68c10.68,0,17.36-11.57,12.02-20.82l-35.34-61.21c-5.34-9.25-18.7-9.25-24.04,0Z"/><path d="M117.15,17.22c.1-.97.03-2.21,0-2.6-.03-.41-.06-.76-.09-1h0c-.05-.26-.28-1.36-1.05-2.64-.9-1.49-2.26-2.83-4.1-4-1.82-1.16-3.59-1.84-5.31-2.02-1.72-.19-3.32.1-4.8.87-1.48.77-2.76,2.01-3.86,3.72l-2.22,3.47-1.43,2.24-24.49,41.43h-9.5L11.41,89.15l1.9,9.55,50.95-32.6,16.3,39.03,17.67.33-18.47-43.77c10.69-11.74,21.37-23.48,32.06-35.23,1-1.04,3.05-3.32,4.35-6.09.42-.89.86-1.86.99-3.16Z"/><rect class="cls-3" x="8.34" y="50.24" width="28.85" height="44.99" transform="translate(-20.5 9.99) rotate(-17.21)"/><g class="cls-7"><path d="M7.13,77.61L0,54.6l8.16-2.53c1.61-.5,3.02-.63,4.23-.41,1.22.23,2.22.72,3.02,1.49.8.76,1.37,1.71,1.71,2.83.31.99.38,1.86.23,2.61-.15.75-.45,1.41-.91,1.96-.45.56-.99,1.03-1.6,1.43l.07.22c.73-.18,1.53-.16,2.38.07.86.23,1.65.69,2.39,1.38.74.69,1.29,1.63,1.67,2.84s.41,2.28.17,3.37c-.24,1.09-.85,2.08-1.81,2.97-.97.89-2.35,1.62-4.17,2.18l-8.42,2.61ZM6.06,63.79l5.07-1.57c.82-.26,1.52-.65,2.09-1.18.57-.53.96-1.15,1.17-1.87.21-.71.19-1.47-.06-2.26-.31-1-.92-1.74-1.83-2.21-.91-.47-2.11-.48-3.6-.02l-5.16,1.6,2.32,7.51ZM9.26,74.11l5.41-1.67c1.79-.55,2.96-1.29,3.5-2.22.54-.92.66-1.89.35-2.88-.24-.77-.65-1.42-1.25-1.95-.59-.53-1.31-.88-2.14-1.05-.84-.17-1.75-.1-2.74.2l-5.56,1.72,2.43,7.85Z"/></g><polygon class="cls-3" points="12.61 92.21 33.35 106.06 58.33 68.64 34.33 52.63 11.93 86.18 12.61 92.21"/><path d="M47.65,63.9l-21.69,6.65,1.74,2.31,6-1.93,5.29,7.02-3.47,5.28,1.72,2.29,12.31-19.1-1.9-2.51ZM42.9,72l-2.52,3.84-4.28-5.68,4.36-1.4c.73-.24,1.68-.56,2.86-.98.98-.34,2.17-.79,3.56-1.32-.88,1.18-1.62,2.19-2.21,3.01-.71,1-1.3,1.84-1.76,2.53Z"/><polygon class="cls-1" points="11.95 94.97 31.19 120 49.96 105.58 27.47 76.32 11.78 88.38 11.95 94.97"/><path d="M22.5,88.24h0c6.35,0,11.51,5.16,11.51,11.51v3.24H10.99v-3.24c0-6.35,5.16-11.51,11.51-11.51Z" transform="translate(86.62 21.2) rotate(53.99)"/><path class="cls-2" d="M23.71,90.27h.42c4.75,0,8.6,3.86,8.6,8.6v2.69H15.11v-2.69c0-4.75,3.86-8.6,8.6-8.6Z" transform="translate(95.03 27.25) rotate(60)"/><circle cx="61.21" cy="46.04" r="11.78"/><circle class="cls-6" cx="61.22" cy="46.04" r="11.78"/></svg>